<?xml version="1.0" ?><!DOCTYPE svg  PUBLIC '-//W3C//DTD SVG 1.1//EN'  'http://www.w3.org/Graphics/SVG/1.1/DTD/svg11.dtd'><svg height="8.4666mm" style="shape-rendering:geometricPrecision; text-rendering:geometricPrecision; image-rendering:optimizeQuality; fill-rule:evenodd; clip-rule:evenodd" version="1.1" viewBox="0 0 847 847" width="8.4666mm" xml:space="preserve" xmlns="http://www.w3.org/2000/svg" xmlns:xlink="http://www.w3.org/1999/xlink"><defs><style type="text/css">
   <![CDATA[
    .fil1 {fill:#FEFEFE}
    .fil0 {fill:#282828}
   ]]>
  </style></defs><g id="Layer_x0020_1"><circle class="fil0" cx="423" cy="423" r="342"/><path class="fil1" d="M260 328c0,-13 -9,-23 -24,-23 -13,0 -23,10 -23,23 0,13 10,23 23,23 14,0 24,-9 24,-23zm-1 45l-44 0 0 164 44 0 0 -164zm127 -66c-60,0 -97,50 -97,118 0,66 34,116 94,116 56,0 96,-41 96,-120 0,-60 -30,-114 -93,-114zm-1 36c33,0 49,38 49,80 0,46 -17,82 -50,82 -32,0 -49,-37 -49,-81 0,-42 15,-81 50,-81zm248 -25c-11,-6 -27,-11 -49,-11 -49,0 -78,29 -78,66 0,30 21,51 55,66 25,10 36,20 36,36 0,17 -12,29 -37,29 -18,0 -37,-6 -49,-13l-8 37c10,6 33,12 56,12 52,0 82,-28 82,-68 0,-30 -16,-51 -52,-67 -28,-13 -39,-20 -39,-36 0,-13 10,-26 33,-26 19,0 33,6 41,10l9 -35z"/></g></svg>