<svg fill="none" height="32" viewBox="0 0 281 32" width="281" xmlns="http://www.w3.org/2000/svg"><path d="m270.801 6.32715h-7.344v12.93065h7.344z" fill="#f26122"/><path d="m264.253 12.7929c-.014-2.4941 1.151-4.85617 3.159-6.40756-3.435-2.62821-8.37-2.24655-11.335.87659-2.965 3.12327-2.965 7.93917 0 11.06247 2.965 3.1228 7.9 3.5048 11.335.8763-2.008-1.5511-3.173-3.9132-3.159-6.4078z" fill="#ea1d25"/><path d="m280.97 12.7924c-.002 3.121-1.834 5.9674-4.719 7.3315-2.884 1.3641-6.316 1.0073-8.839-.9191 3.634-2.7849 4.263-7.9079 1.406-11.44795-.409-.51269-.882-.97473-1.406-1.37618 2.523-1.92666 5.955-2.28361 8.839-.91938 2.885 1.36424 4.717 4.21059 4.719 7.33111z" fill="#f69e1e"/><path clip-rule="evenodd" d="m191.997 15.8517c.009-2.5209-2.075-3.6094-3.693-4.455-1.024-.5348-1.861-.9723-1.861-1.61291 0-.54612.531-1.12438 1.658-1.27367 1.341-.13228 2.694.10205 3.912.67841l.696-3.307c-1.187-.44408-2.445-.67368-3.713-.67841-3.912 0-6.63 2.08342-6.63 5.05968 0 2.1997 1.972 3.4232 3.464 4.1508 1.492.7275 2.072 1.2396 2.055 1.901 0 1.0252-1.226 1.4882-2.37 1.5052-1.411.0179-2.803-.3232-4.045-.9921l-.712 3.307c1.404.5471 2.901.822 4.409.8097 4.161 0 6.896-2.0503 6.912-5.225zm-10.759-10.38306-3.315 15.29436h-3.978l3.315-15.29436zm16.676 9.92006 2.088-5.73719 1.211 5.73719zm8.106 5.4244h-3.68l-.481-2.2818h-4.989l-.813 2.2818h-4.177l5.951-14.17096c.274-.67462.928-1.11776 1.658-1.12438h3.315zm-36.799-.1002 6.431-15.29434h-4.31l-4.127 10.40004-1.658-8.84576c-.146-.8995-.926-1.55806-1.84-1.55428h-6.746l-.099.44597c1.353.26456 2.667.6973 3.912 1.28972.529.2485.889.75778.944 1.33981l3.166 12.21884z" fill="#fff" fill-rule="evenodd"/><path d="m235.525 8.79639-.049.30291c-.674 3.4359-2.984 4.6303-5.927 4.6303h-1.496c-.36-.0005-.667.2594-.723.6133l-.765 4.843-.222 1.3744c-.017.1103.015.222.088.3066.072.0846.179.1342.29.1351h2.664c.315 0 .584-.2295.633-.5399v-.1309l.501-3.1657v-.172c.045-.309.311-.539.625-.54h.435c2.574 0 4.596-1.0387 5.179-4.0903.316-1.0429.121-2.1728-.526-3.0512-.205-.20989-.444-.38379-.707-.51561z" fill="#189bd7"/><path d="m234.818 8.51822-.313-.08181-.345-.06544c-.435-.06498-.875-.0949-1.315-.09022h-4.012c-.093-.00234-.186.01729-.271.0575-.19.08882-.323.26692-.353.47448l-.822 5.37447v.1557c.056-.3539.363-.6143.723-.6138h1.496c2.943 0 5.253-1.1944 5.927-4.63028l.049-.30245c-.177-.09116-.361-.16783-.55-.22906z" fill="#242e65"/><path d="m228.209 8.8128c.03-.20709.163-.38566.354-.47448.084-.04021.177-.05984.271-.0575h4.011c.44-.00468.88.02524 1.315.09022l.346.06544.312.08181.156.04909c.19.06123.374.1379.551.22906.267-1.02189.022-2.10965-.658-2.92053-.822-.86715-2.17-1.23528-3.929-1.23528h-5.113c-.36-.00043-.667.25977-.723.61355l-2.129 13.42462c-.02.1267.018.2552.101.3524.084.0973.205.1538.334.1548h3.157l.822-4.9982z" fill="#253d80"/><path clip-rule="evenodd" d="m2.31293 8.29833.00001-.00001 4.92332-1.63321h.00001c.09644-.03199.20104-.03199.29748 0h.00001l4.92334 1.63321c.192.0637.3129.23843.3129.42583v4.35885c0 1.5176-.7616 2.8409-1.9286 3.9901-1.16372 1.146-2.57203 1.954-3.45639 2.3906-.88436-.4366-2.29268-1.2446-3.45637-2.3906-1.16699-1.1492-1.92864-2.4725-1.92864-3.9901v-4.35885c0-.1874.12092-.36213.31293-.42582zm12.45707.42582c0-1.05447-.678-1.99065-1.6832-2.3241l-4.92333-1.63322c-.5053-.16762-1.05162-.16762-1.55692 0l-4.92333 1.63322c-1.005202.33345-1.68322 1.26963-1.68322 2.3241v4.35885c0 4.493 4.56245 7.2202 6.51514 8.1817.5519.2717 1.18784.2717 1.73974 0 1.95272-.9615 6.51512-3.6887 6.51512-8.1817zm-4.3431 3.30315c.3204-.3189.3204-.8359 0-1.1548s-.83999-.3189-1.16042 0l-2.70202 2.689-1.06089-1.0558c-.32045-.3189-.84-.3189-1.16045 0s-.32045.8359 0 1.1548l1.17694 1.1713c.57685.574 1.51196.574 2.08881 0z" fill="#88c44c" fill-rule="evenodd"/><g fill="#ced3f6"><path d="m26.9417 19.5563c-.7969 0-1.4682-.1256-2.0139-.3768-.5457-.2598-.9615-.615-1.2474-1.0654-.2772-.4505-.4158-.9659-.4158-1.5462h.9875c0 .3638.0867.7059.2599 1.0264.1819.3119.4678.5674.8575.7666.3985.1906.9226.2859 1.5722.2859.9009 0 1.5679-.1862 2.001-.5587.4418-.3811.6626-.8446.6626-1.3903 0-.4591-.1819-.8402-.5457-1.1434-.3551-.3118-.8922-.4981-1.6111-.5587l-1.0915-.1039c-.8142-.0693-1.4639-.3205-1.9489-.7537-.4765-.4417-.7147-1.0221-.7147-1.741 0-.5458.13-1.0265.3898-1.4423.2599-.4244.628-.7536 1.1044-.98747.4851-.24254 1.0655-.36381 1.7411-.36381.6843 0 1.269.1256 1.7541.3768.4938.24258.8706.58038 1.1304 1.01348.2599.4331.3898.9355.3898 1.5072h-.9875c0-.3465-.0779-.6713-.2338-.9745-.156-.3032-.4028-.5457-.7406-.7276-.3379-.1906-.7753-.2859-1.3124-.2859-.5197 0-.9441.0867-1.2733.2599s-.576.4028-.7406.6886c-.1559.2859-.2339.5977-.2339.9356 0 .4331.1473.7969.4418 1.0914.3032.2858.7449.4504 1.3253.4937l1.0914.104c.9615.0779 1.7108.3508 2.2478.8185.5371.4591.8056 1.0568.8056 1.7931 0 .5544-.1516 1.0481-.4547 1.4812-.2946.4331-.7147.771-1.2604 1.0135-.5457.2426-1.191.3638-1.936.3638z"/><path d="m35.6117 19.5563c-.5977 0-1.1131-.0996-1.5462-.2988-.4245-.2079-.7753-.4808-1.0525-.8186-.2772-.3465-.4851-.7319-.6237-1.1564-.1299-.4331-.1949-.8705-.1949-1.3123v-.1819c0-.4418.0693-.8749.2079-1.2993.1386-.4245.3422-.8056.6107-1.1434.2772-.3379.6237-.6064 1.0395-.8056.4244-.2079.9182-.3119 1.4812-.3119.719 0 1.3166.1603 1.7931.4808.485.3118.8489.7233 1.0914 1.2344.2425.5024.3638 1.0351.3638 1.5981v.5068h-5.652c.0173.4937.1169.9441.2988 1.3512.1819.3985.4548.7147.8186.9486.3638.2338.8185.3508 1.3643.3508.5976 0 1.0827-.1343 1.4552-.4028s.602-.5934.6886-.9745h.9096c-.1386.6843-.4808 1.23-1.0265 1.6371-.5371.3985-1.2127.5977-2.0269.5977zm-.078-6.4706c-.7016 0-1.2517.2079-1.6501.6237-.3898.4158-.628.9441-.7147 1.5851h4.6646c-.0606-.6583-.2859-1.191-.6756-1.5981-.3898-.4071-.9312-.6107-1.6242-.6107z"/><path d="m43.5554 19.5563c-.5804 0-1.0871-.1039-1.5202-.3118-.4245-.2079-.7796-.4851-1.0655-.8316-.2858-.3465-.5024-.7319-.6496-1.1564-.1386-.4244-.2079-.8532-.2079-1.2863v-.1819c0-.4418.0693-.8706.2079-1.2863.1472-.4245.3638-.8056.6496-1.1434.2859-.3465.641-.6194 1.0655-.8186.4244-.2079.9225-.3119 1.4942-.3119s1.0784.104 1.5202.3119c.4504.2079.8099.5024 1.0784.8835.2772.3812.4461.8316.5068 1.3513h-.9355c-.078-.4851-.3032-.8835-.6757-1.1954-.3638-.3118-.8619-.4677-1.4942-.4677-.5457 0-1.0005.1256-1.3643.3768-.3551.2425-.6237.576-.8056 1.0005-.1819.4157-.2728.8792-.2728 1.3902 0 .5111.0909.9789.2728 1.4033.1819.4245.4548.7666.8186 1.0265.3638.2512.8229.3768 1.3773.3768.6237 0 1.1347-.1646 1.5332-.4938.4071-.3378.6367-.7406.6886-1.2083h.9355c-.0433.5197-.2079.9745-.4937 1.3643-.2859.3811-.6627.6799-1.1304.8965-.4591.2079-.9702.3118-1.5332.3118z"/><path d="m50.8773 19.5303c-.8316 0-1.4639-.2642-1.897-.7926-.4245-.537-.6367-1.2819-.6367-2.2348v-4.0539h.9615v4.2488c0 .5977.1559 1.0741.4677 1.4293.3205.3465.7623.5197 1.3254.5197.589 0 1.0567-.1862 1.4032-.5587.3552-.3725.5327-.8706.5327-1.4942v-4.1449h.9745v6.8864h-.7796v-1.5721c-.1472.563-.4157 1.0004-.8055 1.3123-.3812.3031-.8836.4547-1.5073.4547z"/><path d="m56.5568 19.3354v-6.8734h.7796v1.923c.2426-1.334 1.1304-2.0009 2.6636-2.0009h.2209v.8835h-.4028c-.7449 0-1.3123.1949-1.7021.5847s-.5847.9528-.5847 1.6891v3.794z"/><path d="m64.5799 19.5563c-.5976 0-1.113-.0996-1.5462-.2988-.4244-.2079-.7752-.4808-1.0524-.8186-.2772-.3465-.4851-.7319-.6237-1.1564-.1299-.4331-.1949-.8705-.1949-1.3123v-.1819c0-.4418.0693-.8749.2079-1.2993.1386-.4245.3422-.8056.6107-1.1434.2772-.3379.6237-.6064 1.0395-.8056.4244-.2079.9181-.3119 1.4812-.3119.7189 0 1.3166.1603 1.793.4808.4851.3118.8489.7233 1.0915 1.2344.2425.5024.3638 1.0351.3638 1.5981v.5068h-5.6521c.0174.4937.117.9441.2989 1.3512.1819.3985.4547.7147.8185.9486.3639.2338.8186.3508 1.3643.3508.5977 0 1.0828-.1343 1.4553-.4028.3724-.2685.602-.5934.6886-.9745h.9095c-.1385.6843-.4807 1.23-1.0264 1.6371-.5371.3985-1.2127.5977-2.027.5977zm-.0779-6.4706c-.7017 0-1.2517.2079-1.6502.6237-.3898.4158-.628.9441-.7146 1.5851h4.6646c-.0607-.6583-.2859-1.191-.6757-1.5981s-.9311-.6107-1.6241-.6107z"/><path d="m72.8797 19.3354v-9.52399h2.7675c.7623 0 1.3903.1256 1.884.37679.5024.2512.8749.5977 1.1175 1.0395.2512.4417.3768.9485.3768 1.5202v.1819c0 .5717-.1256 1.0784-.3768 1.5202-.2426.4418-.6151.7882-1.1175 1.0394-.4937.2512-1.1217.3768-1.884.3768h-1.7801v3.4692zm2.9364-8.6534h-1.949v4.3137h1.949c.5111 0 .9269-.0953 1.2474-.2858.3205-.1906.5587-.4505.7146-.7796.1559-.3292.2339-.693.2339-1.0915 0-.6063-.1776-1.1174-.5327-1.5332-.3465-.4158-.9009-.6236-1.6632-.6236z"/><path d="m82.6249 19.5173c-.7363 0-1.3297-.1905-1.7801-.5717-.4504-.3811-.6756-.9268-.6756-1.6371 0-.693.2338-1.2257.7016-1.5982.4764-.3724 1.1434-.5587 2.0009-.5587h1.923v-.3248c0-.5111-.1342-.9009-.4027-1.1694-.2686-.2772-.6844-.4158-1.2474-.4158-.3898 0-.7796.0087-1.1694.026s-.7233.039-1.0005.065v-.8576c.2772-.026.5761-.0476.8966-.0649.3205-.0174.628-.026.9225-.026 1.0481 0 1.7974.1992 2.2478.5977.4591.3897.6887 1.0351.6887 1.9359v4.4177h-.7796v-1.4032c-.156.5284-.4375.9268-.8446 1.1953-.3985.2599-.8922.3898-1.4812.3898zm.1819-.7796c.3205 0 .628-.0563.9225-.1689.2945-.1212.5414-.3205.7406-.5977.1992-.2858.3075-.6756.3248-1.1693v-.9096h-1.9879c-.5457 0-.9658.1343-1.2604.4028-.2858.2599-.4287.602-.4287 1.0265 0 .4331.1516.7796.4547 1.0394.3032.2512.7147.3768 1.2344.3768z"/><path d="m87.541 22.012v-.8705h.8835c.4505 0 .8056-.0866 1.0655-.2599.2685-.1732.4807-.5024.6366-.9875l.2209-.7276h-.6886l-2.4947-6.7045h1.0005l2.1179 5.886h.3248l1.832-5.886h.9485l-2.4167 7.705c-.2079.6583-.5327 1.1304-.9745 1.4163-.4331.2858-.9745.4287-1.6241.4287z"/><path d="m95.0924 19.3354v-6.8864h.7796v1.5852c.1472-.5544.4071-.9875.7796-1.2993.3724-.3205.8662-.4808 1.4812-.4808h.039c.6063 0 1.0957.156 1.4682.4678.372.3118.632.7493.78 1.3123.156-.5544.42-.9875.792-1.2993.381-.3205.875-.4808 1.481-.4808h.039c.815 0 1.421.2772 1.819.8316.408.5544.611 1.308.611 2.2608v3.9889h-.974v-4.2098c0-.6063-.148-1.0871-.442-1.4422-.295-.3552-.719-.5327-1.273-.5327-.572 0-1.027.1862-1.365.5587-.329.3724-.493.8662-.493 1.4812v4.1448h-.975v-4.2098c0-.6063-.1472-1.0871-.4418-1.4422-.2945-.3552-.7189-.5327-1.2733-.5327-.5717 0-1.0265.1862-1.3643.5587-.3291.3724-.4937.8662-.4937 1.4812v4.1448z"/><path d="m110.462 19.5563c-.597 0-1.113-.0996-1.546-.2988-.424-.2079-.775-.4808-1.052-.8186-.278-.3465-.485-.7319-.624-1.1564-.13-.4331-.195-.8705-.195-1.3123v-.1819c0-.4418.069-.8749.208-1.2993.139-.4245.342-.8056.611-1.1434.277-.3379.623-.6064 1.039-.8056.425-.2079.918-.3119 1.481-.3119.719 0 1.317.1603 1.793.4808.485.3118.849.7233 1.092 1.2344.242.5024.364 1.0351.364 1.5981v.5068h-5.652c.017.4937.116.9441.298 1.3512.182.3985.455.7147.819.9486.364.2338.819.3508 1.364.3508.598 0 1.083-.1343 1.455-.4028.373-.2685.603-.5934.689-.9745h.91c-.139.6843-.481 1.23-1.027 1.6371-.537.3985-1.213.5977-2.027.5977zm-.078-6.4706c-.701 0-1.251.2079-1.65.6237-.39.4158-.628.9441-.714 1.5851h4.664c-.061-.6583-.286-1.191-.676-1.5981-.389-.4071-.931-.6107-1.624-.6107z"/><path d="m115.508 19.3354v-6.8734h.78v1.5982c.156-.5717.433-1.0135.832-1.3253.407-.3205.939-.4808 1.598-.4808h.039c.866 0 1.511.2729 1.936.8186.424.5371.636 1.295.636 2.2738v3.9889h-.961v-4.1968c0-.5977-.165-1.0784-.494-1.4422s-.788-.5457-1.377-.5457c-.606 0-1.096.1905-1.468.5717-.364.3724-.546.8662-.546 1.4812v4.1318z"/><path d="m126.251 19.4134c-.468 0-.879-.0693-1.235-.2079-.346-.1386-.615-.3725-.805-.7016-.191-.3292-.286-.7796-.286-1.3513v-3.95h-1.234v-.7406h1.234v-2.1698h.936v2.1698h2.481v.7406h-2.481v4.0929c0 .3898.108.693.324.9095.217.2166.524.3249.923.3249h1.234v.8835z"/><path d="m141.619 0h1.12985v31.0707h-1.12985z"/></g></svg>