<svg fill="none" height="637" viewBox="0 0 206 637" width="206" xmlns="http://www.w3.org/2000/svg" xmlns:xlink="http://www.w3.org/1999/xlink"><linearGradient id="a"><stop offset="0" stop-color="#3e7dff" stop-opacity="0"/><stop offset="1" stop-color="#3e7dff" stop-opacity=".18"/></linearGradient><linearGradient id="b" gradientUnits="userSpaceOnUse" x1="-499.097" x2="-128.262" xlink:href="#a" y1="-114.407" y2="252.867"/><linearGradient id="c" gradientUnits="userSpaceOnUse" x1="-497.673" x2="-126.185" xlink:href="#a" y1="-110.488" y2="254.827"/><linearGradient id="d" gradientUnits="userSpaceOnUse" x1="-496.405" x2="-123.988" xlink:href="#a" y1="-106.827" y2="256.61"/><linearGradient id="e" gradientUnits="userSpaceOnUse" x1="-495.272" x2="-121.622" xlink:href="#a" y1="-103.464" y2="258.15"/><linearGradient id="f" gradientUnits="userSpaceOnUse" x1="-494.228" x2="-119.496" xlink:href="#a" y1="-100.091" y2="259.666"/><linearGradient id="g" gradientUnits="userSpaceOnUse" x1="-493.416" x2="-117.013" xlink:href="#a" y1="-97.1691" y2="260.963"/><linearGradient id="h" gradientUnits="userSpaceOnUse" x1="-493.05" x2="-114.853" xlink:href="#a" y1="-94.3891" y2="262.671"/><linearGradient id="i" gradientUnits="userSpaceOnUse" x1="-492.704" x2="-112.437" xlink:href="#a" y1="-91.8992" y2="264.051"/><linearGradient id="j" gradientUnits="userSpaceOnUse" x1="-492.34" x2="-109.773" xlink:href="#a" y1="-89.642" y2="265.128"/><linearGradient id="k" gradientUnits="userSpaceOnUse" x1="-491.93" x2="-106.816" xlink:href="#a" y1="-87.6757" y2="265.812"/><linearGradient id="l" gradientUnits="userSpaceOnUse" x1="-491.464" x2="-103.572" xlink:href="#a" y1="-85.9591" y2="266.123"/><linearGradient id="m" gradientUnits="userSpaceOnUse" x1="-490.943" x2="-100.042" xlink:href="#a" y1="-84.5099" y2="266.018"/><linearGradient id="n" gradientUnits="userSpaceOnUse" x1="-490.839" x2="-96.7918" xlink:href="#a" y1="-83.1493" y2="265.973"/><linearGradient id="o" gradientUnits="userSpaceOnUse" x1="-489.894" x2="-92.4097" xlink:href="#a" y1="-82.2935" y2="264.746"/><linearGradient id="p" gradientUnits="userSpaceOnUse" x1="-488.903" x2="-87.8345" xlink:href="#a" y1="-81.6325" y2="263.136"/><linearGradient id="q" gradientUnits="userSpaceOnUse" x1="-487.889" x2="-83.0962" xlink:href="#a" y1="-81.1898" y2="261.1"/><linearGradient id="r" gradientUnits="userSpaceOnUse" x1="-486.72" x2="-78.5672" xlink:href="#a" y1="-80.3797" y2="259.197"/><linearGradient id="s" gradientUnits="userSpaceOnUse" x1="-485.815" x2="-73.5494" xlink:href="#a" y1="-80.4974" y2="256.251"/><linearGradient id="t" gradientUnits="userSpaceOnUse" x1="-484.956" x2="-68.52" xlink:href="#a" y1="-80.7695" y2="252.97"/><linearGradient id="u" gradientUnits="userSpaceOnUse" x1="-484.164" x2="-63.4929" xlink:href="#a" y1="-81.2102" y2="249.32"/><linearGradient id="v" gradientUnits="userSpaceOnUse" x1="-483.396" x2="-58.4821" xlink:href="#a" y1="-81.7633" y2="245.345"/><linearGradient id="w" gradientUnits="userSpaceOnUse" x1="-482.635" x2="-53.4866" xlink:href="#a" y1="-82.4573" y2="240.979"/><linearGradient id="x" gradientUnits="userSpaceOnUse" x1="-481.858" x2="-48.4858" xlink:href="#a" y1="-83.3021" y2="236.195"/><linearGradient id="y" gradientUnits="userSpaceOnUse" x1="-481.018" x2="-43.4902" xlink:href="#a" y1="-84.2607" y2="230.983"/><linearGradient id="z" gradientUnits="userSpaceOnUse" x1="-480.093" x2="-38.4846" xlink:href="#a" y1="-85.3756" y2="225.269"/><linearGradient id="A" gradientUnits="userSpaceOnUse" x1="-479.058" x2="-33.492" xlink:href="#a" y1="-86.6079" y2="219.082"/><linearGradient id="B" gradientUnits="userSpaceOnUse" x1="-477.88" x2="-28.5036" xlink:href="#a" y1="-87.9827" y2="212.331"/><linearGradient id="C" gradientUnits="userSpaceOnUse" x1="-476.505" x2="-23.5223" xlink:href="#a" y1="-89.4905" y2="204.975"/><linearGradient id="D" gradientUnits="userSpaceOnUse" x1="-475.532" x2="-18.9671" xlink:href="#a" y1="-90.9536" y2="198.517"/><linearGradient id="E" gradientUnits="userSpaceOnUse" x1="-474.751" x2="-14.6458" xlink:href="#a" y1="-92.4426" y2="192.477"/><linearGradient id="F" gradientUnits="userSpaceOnUse" x1="-473.774" x2="-10.2816" xlink:href="#a" y1="-94.0438" y2="186.104"/><linearGradient id="G" gradientUnits="userSpaceOnUse" x1="-472.852" x2="-6.07439" xlink:href="#a" y1="-95.7069" y2="179.712"/><linearGradient id="H" gradientUnits="userSpaceOnUse" x1="-472.008" x2="-2.0391" xlink:href="#a" y1="-97.3832" y2="173.447"/><linearGradient id="I" gradientUnits="userSpaceOnUse" x1="-471.297" x2="1.8058" xlink:href="#a" y1="-99.0685" y2="167.418"/><linearGradient id="J" gradientUnits="userSpaceOnUse" x1="-470.753" x2="5.48094" xlink:href="#a" y1="-100.758" y2="161.729"/><linearGradient id="K" gradientUnits="userSpaceOnUse" x1="-470.43" x2="8.99346" xlink:href="#a" y1="-102.437" y2="156.529"/><linearGradient id="L" gradientUnits="userSpaceOnUse" x1="-470.354" x2="12.3667" xlink:href="#a" y1="-104.085" y2="151.944"/><linearGradient id="M" gradientUnits="userSpaceOnUse" x1="-470.501" x2="15.6339" xlink:href="#a" y1="-105.699" y2="147.924"/><linearGradient id="N" gradientUnits="userSpaceOnUse" x1="-470.87" x2="18.8273" xlink:href="#a" y1="-107.308" y2="144.437"/><linearGradient id="O" gradientUnits="userSpaceOnUse" x1="-471.396" x2="21.9973" xlink:href="#a" y1="-108.864" y2="141.486"/><linearGradient id="P" gradientUnits="userSpaceOnUse" x1="-472.081" x2="25.1565" xlink:href="#a" y1="-110.407" y2="139.016"/><linearGradient id="Q" gradientUnits="userSpaceOnUse" x1="-472.873" x2="28.3619" xlink:href="#a" y1="-111.968" y2="136.912"/><linearGradient id="R" gradientUnits="userSpaceOnUse" x1="-473.839" x2="31.5505" xlink:href="#a" y1="-113.476" y2="135.326"/><linearGradient id="S" gradientUnits="userSpaceOnUse" x1="-474.952" x2="34.7543" xlink:href="#a" y1="-114.941" y2="134.201"/><linearGradient id="T" gradientUnits="userSpaceOnUse" x1="-476.202" x2="37.974" xlink:href="#a" y1="-116.388" y2="133.465"/><linearGradient id="U" gradientUnits="userSpaceOnUse" x1="-477.543" x2="41.2227" xlink:href="#a" y1="-117.791" y2="133.089"/><linearGradient id="V" gradientUnits="userSpaceOnUse" x1="-478.945" x2="44.5148" xlink:href="#a" y1="-119.169" y2="132.981"/><linearGradient id="W" gradientUnits="userSpaceOnUse" x1="-480.243" x2="47.7713" xlink:href="#a" y1="-120.115" y2="133.564"/><linearGradient id="X" gradientUnits="userSpaceOnUse" x1="-481.647" x2="51.0971" xlink:href="#a" y1="-121.228" y2="134.114"/><linearGradient id="Y" gradientUnits="userSpaceOnUse" x1="-483.157" x2="54.3984" xlink:href="#a" y1="-122.261" y2="134.978"/><linearGradient id="Z" gradientUnits="userSpaceOnUse" x1="-484.648" x2="57.7312" xlink:href="#a" y1="-123.232" y2="135.971"/><linearGradient id="aa" gradientUnits="userSpaceOnUse" x1="-486.197" x2="61.0466" xlink:href="#a" y1="-124.126" y2="137.177"/><linearGradient id="ab" gradientUnits="userSpaceOnUse" x1="-487.714" x2="64.393" xlink:href="#a" y1="-125.002" y2="138.388"/><linearGradient id="ac" gradientUnits="userSpaceOnUse" x1="-489.235" x2="67.7401" xlink:href="#a" y1="-125.808" y2="139.699"/><linearGradient id="ad" gradientUnits="userSpaceOnUse" x1="-490.686" x2="71.1184" xlink:href="#a" y1="-126.57" y2="140.98"/><linearGradient id="ae" gradientUnits="userSpaceOnUse" x1="-492.063" x2="74.5026" xlink:href="#a" y1="-127.233" y2="142.282"/><linearGradient id="af" gradientUnits="userSpaceOnUse" x1="-493.347" x2="77.939" xlink:href="#a" y1="-127.93" y2="143.366"/><linearGradient id="ag" gradientUnits="userSpaceOnUse" x1="-494.563" x2="81.4032" xlink:href="#a" y1="-128.588" y2="144.391"/><linearGradient id="ah" gradientUnits="userSpaceOnUse" x1="-495.746" x2="84.8712" xlink:href="#a" y1="-129.2" y2="145.35"/><linearGradient id="ai" gradientUnits="userSpaceOnUse" x1="-496.909" x2="88.3524" xlink:href="#a" y1="-129.813" y2="146.198"/><linearGradient id="aj" gradientUnits="userSpaceOnUse" x1="-497.844" x2="91.6192" xlink:href="#a" y1="-130.015" y2="147.385"/><linearGradient id="ak" gradientUnits="userSpaceOnUse" x1="-499.15" x2="95.4358" xlink:href="#a" y1="-130.122" y2="149.8"/><linearGradient id="al" gradientUnits="userSpaceOnUse" x1="-499.938" x2="98.9699" xlink:href="#a" y1="-130.946" y2="149.233"/><linearGradient id="am" gradientUnits="userSpaceOnUse" x1="-500.678" x2="102.507" xlink:href="#a" y1="-131.769" y2="148.495"/><linearGradient id="an" gradientUnits="userSpaceOnUse" x1="-501.436" x2="106.127" xlink:href="#a" y1="-132.733" y2="147.386"/><linearGradient id="ao" gradientUnits="userSpaceOnUse" x1="-496.582" x2="101.866" xlink:href="#a" y1="-144.606" y2="108.65"/><g clip-rule="evenodd" fill-rule="evenodd" opacity=".5" stroke-width="1.5"><path d="m77.0241 104.127c3.9808 6.22-3.3495 15.544-19.3237 27.528-15.9763 11.985-40.5768 26.426-69.5068 43.598-15.7986 9.376-32.6959 19.406-49.2952 29.742-16.5994 10.337-32.8592 20.987-47.1904 31.428-26.707 19.457-43.407 40.059-48.174 56.287-4.785 16.288-12.317 14.258-22.391 1.61-10.078-12.647-17.712-36.683-8.826-61.114 7.381-20.297 23.213-40.668 42.686-62.094 17.039-18.743 37.838-38.676 56.3658-58.191 18.533-19.5132 34.4118-38.6773 44.4122-55.3607 14.2214-23.7252 24.3667-37.719 38.31774-42.1312 13.95244-4.4149 28.99086.2475 39.93496 8.2723 12.3272 9.0433 20.3386 21.9124 25.8581 36.4308 6.2418 16.408 10.5814 33.7679 17.1323 43.9948z" stroke="url(#b)"/><path d="m74.2081 107.573c3.8216 6.373-3.534 15.761-19.4578 27.797-15.9216 12.036-40.4143 26.512-68.9934 43.763-15.6718 9.461-32.3687 19.585-48.6672 30.011-16.3026 10.427-32.1645 21.165-46.0567 31.668-25.801 19.511-41.477 39.946-45.98 55.97-4.534 16.146-12.174 14.127-22.761 1.647-10.589-12.484-19.906-36.396-12.433-60.735 6.262-20.38 21.164-40.721 40.12-62.137 16.572-18.717 37.194-38.652 56.0212-58.143 18.8276-19.4914 35.5036-38.6113 46.4976-55.2613 15.5099-23.4854 26.8318-37.4793 40.9993-42.1364 14.16633-4.6612 28.8235-.4015 39.4427 7.2616 12.0734 8.7054 19.7866 21.3425 24.9987 35.8399 5.8894 16.3468 9.9177 33.8774 16.2675 44.4552z" stroke="url(#c)"/><path d="m71.3706 111.02c3.6779 6.526-3.7036 15.993-19.5519 28.082-15.8483 12.09-40.2081 26.611-68.3946 43.947-15.5223 9.548-31.9856 19.774-47.9639 30.295-15.9771 10.525-31.4184 21.353-44.8432 31.922-24.858 19.572-39.626 39.761-43.894 55.59-4.311 15.998-12.052 14.01-23.129 1.691-11.077-12.32-22.013-36.07-15.956-60.309 5.115-20.47 19.07-40.79 37.475-62.198 10.718-12.468 23.352-25.489 36.234-38.554 12.877-13.07 25.9824-26.191 37.7105-38.839 11.7258-12.6559 22.0127-24.8521 29.97-35.936 16.6977-23.2651 29.1969-37.2482 43.59622-42.1436 14.3952-4.8942 28.74858-1.0377 39.08848 6.2683 11.8529 8.3753 19.2867 20.7839 24.2129 35.2583 5.542 16.28 9.2721 33.988 15.4435 44.927z" stroke="url(#d)"/><path d="m68.504 114.476c3.545 6.677-3.8463 16.224-19.6054 28.377-15.7591 12.152-39.95798 26.723-67.7063 44.148-15.3495 9.64-31.5568 19.969-47.1816 30.593s-30.6215 21.547-43.5487 32.181c-23.873 19.635-37.859 39.516-41.922 55.148-4.119 15.853-11.953 13.899-23.492 1.741s-24.013-35.698-19.384-59.848c3.945-20.561 16.928-40.858 34.74-62.278 10.361-12.459 22.754-25.485 35.563-38.561 12.808-13.077 26.0193-26.2 38.0484-38.849 12.031-12.65 22.8094-24.8324 31.3616-35.9127 17.7938-23.0622 31.4684-37.034 46.11998-42.1581 14.65444-5.1295 28.74792-1.6623 38.83042 5.2934 11.6647 8.0492 18.8459 20.2301 23.4968 34.6875 5.2257 16.2438 8.6746 34.1279 14.6798 45.4379z" stroke="url(#e)"/><path d="m65.6161 117.938c3.4226 6.835-3.9699 16.469-19.6211 28.687-15.6513 12.218-39.65255 26.852-66.9282 44.378-15.1519 9.74-31.0758 20.174-46.3208 30.9-15.241 10.724-29.7562 21.749-42.177 32.45-22.852 19.7-36.248 39.674-40.092 54.631-3.909 15.22-11.877 13.806-23.856 1.812-11.978-11.99-25.908-35.282-22.705-59.34 2.748-20.654 14.742-40.937 31.93-62.369 9.991-12.453 22.11-25.492 34.809-38.579 12.697-13.09 25.977-26.222 38.2614-38.878 12.2849-12.6529 23.5167-24.8302 32.6222-35.9126 18.8004-22.8775 33.6353-36.8291 48.57301-42.1875 14.93767-5.3583 28.81619-2.2782 38.67589 4.3393 11.5115 7.7217 18.4565 19.6858 22.8555 34.1303 4.9367 16.1797 8.119 34.2435 13.9752 45.9375z" stroke="url(#f)"/><path d="m62.7119 121.409c3.313 6.991-4.0696 16.72-19.5971 29.013-15.5264 12.296-39.30319 26.993-66.0623 44.619-14.9323 9.839-30.5435 20.388-45.3754 31.224-14.8336 10.829-28.8913 22.07-40.6451 32.656-21.567 19.427-34.877 39.348-38.479 54.101-3.676 15.063-11.822 13.737-24.218 1.908-12.395-11.824-27.681-34.826-25.917-58.791 1.531-20.756 12.522-41.026 29.046-62.472 9.596-12.453 21.417-25.513 33.973-38.618 12.557-13.105 25.86-26.261 38.358-38.928 12.4981-12.667 24.1366-24.8477 33.7632-35.936 19.715-22.7124 35.6838-36.6429 50.931-42.2312 15.24664-5.5903 28.9477-2.8905 38.6179 3.3969 11.3875 7.4034 18.1274 19.1504 22.288 33.5826 4.6507 16.1413 7.5933 34.3857 13.3162 46.4737z" stroke="url(#g)"/><path d="m59.7894 124.891c3.214 7.153-4.1453 16.976-19.5227 29.358s-38.90198 27.154-65.0984 44.886c-14.6892 9.943-29.9561 20.608-44.3492 31.551-14.393 10.942-27.7286 22.258-39.0731 32.806-20.747 19.29-33.605 39.01-36.994 53.568-3.476 14.916-11.791 13.679-24.581 2.019-12.789-11.656-29.329-34.328-28.997-58.203.291-20.859 10.256-41.121 26.09-62.596 9.182-12.457 20.678-25.536 33.058-38.668 12.38-13.133 25.665-26.322 38.336-39.004 12.6697-12.686 24.6722-24.8799 34.7772-35.9838 20.5371-22.5603 37.6102-36.4653 53.1903-42.2793 15.57889-5.8181 29.1458-3.4867 38.654 2.4735 11.2992 7.0858 17.8451 18.6235 21.7883 33.0549 4.3974 16.0934 7.1115 34.5257 12.7216 47.0177z" stroke="url(#h)"/><path d="m56.8553 128.388c3.1224 7.317-4.1971 17.247-19.4034 29.714-15.2057 12.469-38.444692 27.323-64.0363 45.169-14.418 10.052-29.3121 20.841-43.2382 31.895-13.9307 11.054-26.5581 22.382-37.5074 32.886-19.96 19.148-32.394 38.669-35.603 53.04-3.294 14.776-11.781 13.633-24.938 2.143-13.157-11.491-30.84-33.785-31.948-57.576-.977-20.968 7.954-41.225 23.061-62.729 8.756-12.459 19.898-25.569 32.069-38.732 12.171-13.165 25.398-26.386 38.201-39.101 12.8028-12.716 25.1224-24.932 35.6737-36.0554 21.2752-22.4302 39.4013-36.3103 55.3354-42.3539 15.933999-6.0437 29.4041-4.074 38.7797 1.5682 11.2459 6.7668 17.6211 18.0996 21.3598 32.5286 4.17 16.0734 6.6807 34.6895 12.1927 47.6035z" stroke="url(#i)"/><path d="m53.9128 131.897c3.0503 7.48-4.2218 17.526-19.2353 30.092-15.0153 12.56-37.93058 27.506-62.8746 45.474-14.1176 10.171-28.6131 21.081-42.0477 32.255-13.4323 11.167-25.3868 22.448-35.9552 32.905-19.213 19.007-31.247 38.319-34.295 52.509-3.144 14.642-11.793 13.597-25.299 2.277-13.504-11.314-32.207-33.197-34.755-56.902-2.263-21.077 5.618-41.332 19.969-62.875 8.31-12.472 19.08-25.609 31.013-38.813 11.933-13.206 25.063-26.472 37.953-39.222 12.8913-12.748 25.4894-24.996 36.4455-36.1448 21.9285-22.3174 41.0545-36.1726 57.363-42.4363 16.30727-6.2678 29.7216-4.6563 38.9942.6792 11.222 6.4569 17.4494 17.5869 21.0034 32.0211 3.9542 16.0323 6.279 34.8468 11.7187 48.1808z" stroke="url(#j)"/><path d="m50.9648 135.42c2.9926 7.655-4.2117 17.812-19.009 30.481-14.7967 12.671-37.35798 27.706-61.6095 45.801-13.7956 10.287-27.8579 21.33-40.763 32.618-12.9028 11.296-24.2375 22.453-34.4473 32.863-18.494 18.857-30.161 37.955-33.079 51.972-3.017 14.512-11.826 13.57-25.657 2.428-13.83-11.141-33.426-32.575-37.405-56.19-3.575-21.197 3.237-41.454 16.807-63.035 7.849-12.484 18.218-25.659 29.886-38.907 11.664-13.248 24.659-26.565 37.6-39.354 12.939-12.798 25.7709-25.079 37.0967-36.2668 22.5-22.2117 42.5569-36.0506 59.2608-42.5384 16.70213-6.4938 30.09456-5.2305 39.2924-.1966 11.229 6.1469 17.3285 17.0816 20.7154 31.5203 3.7589 16.0165 5.9242 35.0275 11.3115 48.8045z" stroke="url(#k)"/><path d="m48.0196 138.962c2.9439 7.821-4.1784 18.107-18.7303 30.888-14.553 12.777-36.72334 27.922-60.2385 46.141-13.4443 10.413-27.1961 21.699-39.358 32.983-12.1619 11.283-23.1574 22.404-33.0258 32.769-17.814 18.715-29.139 37.586-31.944 51.442-2.914 14.393-11.879 13.556-26.017 2.593-14.136-10.961-34.484-31.903-39.898-55.441-4.904-21.318.828-41.572 13.585-63.204 7.371-12.499 17.325-25.712 28.695-39.011 11.366-13.298 24.195-26.666 37.141-39.515 12.946-12.846 25.9686-25.174 37.633-36.401 22.9843-22.1312 43.9019-35.9512 61.0194-42.6616 17.1187-6.7063 30.52839-5.7936 39.6702-1.0581 11.2663 5.8347 17.2578 16.5816 20.5022 31.0331 3.5865 16.0026 5.6063 35.2136 10.9658 49.4426z" stroke="url(#l)"/><path d="m45.0797 142.523c2.9157 7.998-4.1106 18.415-18.3982 31.312-14.2877 12.897-36.02615 28.155-58.7629 46.505-13.0608 10.543-26.1817 22.002-37.8137 33.279-11.6302 11.284-22.1853 22.379-31.7279 32.692-17.167 18.561-28.174 37.215-30.893 50.911-2.837 14.281-11.957 13.55-26.374 2.768-14.417-10.784-35.372-31.194-42.219-54.648-6.26-21.441-1.618-41.707 10.297-63.383 6.883-12.518 16.398-25.778 27.443-39.128 11.043-13.357 23.667-26.789 36.583-39.693 12.921-12.906 26.091-25.288 38.0476-36.562 23.3948-22.0611 45.0843-35.8781 62.6306-42.8046 17.54511-6.9305 31.0084-6.3503 40.1275-1.905 11.337 5.5304 17.2427 16.0897 20.3552 30.5597 3.4432 15.9819 5.3467 35.4029 10.7048 50.0969z" stroke="url(#m)"/><path d="m42.1477 146.109c2.8968 8.176-4.0094 18.732-18.003 31.755-13.9896 13.023-35.264 28.398-57.1796 46.89-12.5719 10.623-24.6585 21.808-36.223 33.521-11.1143 11.274-21.2442 22.339-30.473 32.604-16.5511 18.408-27.2661 36.835-29.9221 50.382-2.78 14.172-12.047 13.559-26.728 2.965s-33.806-31.128-44.184-53.862c-9.577-20.98-4.28-41.796 6.777-63.529 6.376-12.537 15.434-25.848 26.128-39.259 10.69-13.411 23.076-26.918 35.929-39.888 12.852-12.969 26.129-25.411 38.3443-36.741 23.7253-22.0071 46.0991-35.8179 64.0934-42.9704 17.9908-7.1493 31.53925-6.8997 40.6556-2.7372 11.4433 5.2268 17.2737 15.6043 20.2818 30.0959 3.3151 15.9687 5.1234 35.5937 10.5036 50.7737z" stroke="url(#n)"/><path d="m39.2297 149.713c2.8967 8.358-3.8738 19.06-17.5453 32.215-13.6674 13.154-34.4392 28.658-55.4798 47.293-12.2143 10.816-23.9799 22.44-34.5959 33.706-10.6159 11.267-20.3346 22.298-29.2675 32.514-15.9672 18.253-26.4172 36.45-29.0312 49.851-2.747 14.07-12.158 13.574-27.08 3.17-14.923-10.404-34.461-30.667-45.815-53.12-10.578-20.916-7.121-41.813 3.044-63.609 5.859-12.563 14.442-25.921 24.758-39.4 10.315-13.478 22.431-27.061 35.175-40.101 12.747-13.041 26.093-25.552 38.5296-36.942 23.9837-21.9715 46.9412-35.7866 65.3952-43.1554 18.4541-7.3687 32.115777-7.4447 41.25328-3.5586 11.57652 4.9243 17.35572 15.1261 20.27452 29.646 3.2153 15.976 4.9506 35.822 10.3851 51.491z" stroke="url(#o)"/><path d="m36.3296 153.347c2.9124 8.548-3.7041 19.398-17.0189 32.698-13.31664 13.293-33.5443 28.93-53.6731 47.713-11.7425 10.96-22.8228 22.579-32.9591 33.834-10.1323 11.253-19.4567 22.253-28.1076 32.419-15.4109 18.094-25.6219 36.062-28.2179 49.33-2.734 13.977-12.283 13.6-27.426 3.394-15.145-10.21-35.054-30.196-47.319-52.366-11.534-20.853-9.926-41.8-.672-63.663 7.989-18.883 22.18-39.624 39.487-59.878 17.302-20.252 37.856-39.978 56.786-57.175 24.1645-21.9445 47.6045-35.7764 66.5312-43.3629s32.73783-7.9852 41.92052-4.3694c11.73788 4.6268 17.48798 14.6532 20.34088 29.2053 3.1224 15.976 4.8135 36.035 10.328 52.221z" stroke="url(#p)"/><path d="m33.4537 157.005c2.9456 8.738-3.4999 19.748-16.4318 33.191-12.93066 13.446-32.5767 29.224-51.7446 48.156-11.2462 11.111-21.6514 22.66-31.3175 33.901-9.6654 11.244-18.6091 22.213-26.9974 32.321-14.8864 17.933-24.8804 35.671-27.4774 48.813-2.748 13.886-12.427 13.638-27.774 3.633-15.348-10.009-35.588-29.719-48.705-51.606-12.456-20.791-12.683-41.769-4.365-63.7 7.178-18.928 20.622-39.783 37.455-60.158 16.832-20.375 37.225-40.241 56.38-57.548 24.2734-21.937 48.0802-35.7869 67.493-43.5906 19.4127-7.8038 33.40259-8.5162 42.64509-5.1659 11.92891 4.325 17.67101 14.1876 20.47281 28.7775 3.0698 15.978 4.7388 36.264 10.3668 52.976z" stroke="url(#q)"/><path d="m30.6074 160.689c2.9947 8.937-3.253 20.108-15.7708 33.709-12.51846 13.599-31.6941 29.682-49.6778 48.603-10.6107 11.163-20.5105 22.697-29.7204 33.923-9.2138 11.227-17.7967 22.157-25.934 32.214-14.3934 17.785-24.1914 35.284-26.8094 48.294-2.775 13.807-12.589 13.69-28.116 3.888-15.532-9.804-36.069-29.226-49.976-50.843-13.331-20.723-15.375-41.705-8.014-63.708 6.345-18.973 19.019-39.949 35.338-60.458 16.312-20.516 36.496-40.523 55.811-57.949 24.3162-21.942 46.1832-36.077 68.1898-43.8604 22.0083-7.7772 34.18955-9.0383 43.521145-5.9446 12.153355 4.0314 17.896255 13.7298 20.674955 28.362 3.0285 16.003 4.7023 36.519 10.4835 53.77z" stroke="url(#r)"/><path d="m27.7982 164.407c3.0625 9.139-2.9651 20.488-15.0386 34.245-12.076326 13.762-30.5403 30.142-47.4638 49.007-10.0438 11.192-19.4154 22.729-28.1906 33.941s-17.0134 22.107-24.9151 32.107c-13.9241 17.616-23.5531 34.891-26.2091 47.786-2.828 13.73-12.761 13.754-28.457 4.161s-36.5-28.728-51.135-50.064c-14.168-20.661-17.998-41.624-11.613-63.708 5.499-19.02 17.379-40.117 33.134-60.767 15.758-20.655 35.666-40.816 55.096-58.382 24.2887-21.959 46.476-36.1962 68.5966-44.1657 22.1258-7.9667 35.1221-9.5322 44.55626-6.6944 12.40346 3.7345 18.17004 13.2709 20.94134 27.9531 3.0292 16.021 4.7265 36.77 10.698 54.581z" stroke="url(#s)"/><path d="m25.0283 168.154c3.149 9.344-2.631 20.873-14.229 34.802-11.59685 13.932-29.2472 30.565-45.1421 49.37-9.4868 11.218-18.343 22.759-26.6982 33.953-8.3505 11.194-16.256 22.046-23.9376 31.995-13.4906 17.463-22.9714 34.5-25.6824 47.282-2.899 13.657-12.949 13.822-28.79 4.449-15.841-9.378-36.873-28.217-52.181-49.276-14.968-20.591-20.538-41.52-15.151-63.685 4.636-19.075 15.696-40.295 30.857-61.097 15.166-20.802 34.746-41.131 54.228-58.836 24.1958-21.989 46.6494-36.346 68.8706-44.5025 22.2165-8.1571 36.0372-10.0254 45.595-7.4319 12.67986 3.4367 18.4905 12.8206 21.278 27.5584 3.0269 16.044 4.7865 37.035 10.9827 55.419z" stroke="url(#t)"/><path d="m22.3032 171.937c3.2501 9.553-2.2571 21.273-13.34628 35.381-11.08804 14.111-27.82742 30.95-42.72822 49.684-8.9433 11.244-17.3029 22.786-25.2474 33.96-7.9445 11.173-15.5323 21.989-23.0098 31.878-13.0779 17.299-22.4335 34.113-25.2155 46.788-2.985 13.589-13.152 13.903-29.119 4.748-15.966-9.153-37.198-27.691-53.125-48.472-15.726-20.517-22.989-41.403-18.619-63.648 3.757-19.126 13.977-40.477 28.511-61.44 14.529-20.964 33.726-41.466 53.211-59.328 24.038-22.029 46.7113-36.513 68.9997-44.8636 22.2885-8.3509 36.9291-10.5073 46.6286-8.1568 12.98842 3.1428 18.85665 12.3744 21.683 27.1694 3.0745 16.086 4.919 37.323 11.3769 56.3z" stroke="url(#u)"/><path d="m19.6359 175.755c3.3773 9.769-1.8384 21.683-12.3761 35.98-10.53892 14.292-26.2999 31.295-40.2381 49.957-8.4144 11.264-16.2908 22.807-23.8416 33.963-7.552 11.151-14.842 21.925-22.1264 31.763-12.6949 17.137-21.9437 33.725-24.8137 46.297-3.091 13.528-13.363 13.999-29.441 5.069-16.074-8.929-37.472-27.155-53.964-47.656-16.444-20.44-25.337-41.263-22.003-63.597 2.862-19.188 12.222-40.674 26.088-61.801 13.861-21.125 32.622-41.815 52.061-59.836 23.821-22.088 46.6554-36.705 68.997-45.253 22.3376-8.5466 37.7899-10.9888 47.6446-8.8808 13.3198 2.851 19.27136 11.9438 22.1559 26.8018 3.1273 16.114 5.0831 37.611 11.8554 57.194z" stroke="url(#v)"/><path d="m17.0239 179.611c3.5243 9.991-1.3653 22.112-11.32519 36.596-9.95874 14.489-24.68961 31.59-37.68351 50.178-7.8977 11.288-15.3008 22.828-22.4737 33.958-7.177 11.13-14.1827 21.861-21.284 31.643-12.3347 16.975-21.4979 33.338-24.4805 45.815-3.214 13.472-13.587 14.094-29.754 5.408-16.168-8.689-37.696-26.603-54.704-46.82-17.124-20.358-27.575-41.112-25.295-63.537 1.953-19.249 10.441-40.87 23.601-62.167s31.436-42.178 50.77-60.373c23.545-22.153 46.4955-36.919 68.8569-45.672 22.3668-8.7504 38.611-11.4703 48.6379-9.592 13.68215 2.5591 19.72113 11.511 22.69315 26.441 3.21397 16.153 5.31094 37.905 12.44095 58.122z" stroke="url(#w)"/><path d="m14.4824 183.503c3.6933 10.222-.848 22.549-10.18448 37.241-9.33824 14.687-23.00132 31.832-35.08942 50.335-7.3904 11.311-14.339 22.844-21.1497 33.955-6.8154 11.109-13.551 21.794-20.4871 31.519-12.0003 16.815-21.1 32.956-24.1978 45.34-3.3523 13.424-13.8239 14.213-30.0669 5.765-16.244-8.451-37.869-26.04-55.346-45.967-17.766-20.269-29.693-40.948-28.491-63.466 1.035-19.313 8.626-41.076 21.052-62.549 12.427-21.472 30.172-42.562 49.352-60.937 23.207-22.232 46.2212-37.158 68.5891-46.117 22.3673-8.9614 39.3848-11.9469 49.5973-10.2979 14.06728 2.2699 20.21648 11.0829 23.29469 26.0879 3.31948 16.211 5.59211 38.231 13.12731 59.091z" stroke="url(#x)"/><path d="m12.0132 187.437c3.8796 10.457-.2771 23.008-8.95567 37.906-8.67853 14.897-21.26013 32.028-32.46883 50.447-13.7902 22.66-26.0303 46.015-39.6025 65.338-11.6921 16.657-20.7463 32.574-23.9736 44.879-3.5087 13.374-14.0726 14.331-30.3666 6.134-16.3-8.201-38.001-25.459-55.894-45.099-18.375-20.164-31.688-40.764-31.573-63.382.098-19.378 6.787-41.287 18.447-62.941 11.664-21.654 28.828-42.959 47.802-61.523 22.817-22.326 45.8445-37.418 68.1861-46.588 22.345-9.174 40.1053-12.423 50.5135-11 14.4781 1.977 20.75273 10.658 23.96173 25.747 3.45884 16.263 5.92934 38.551 13.92177 60.083z" stroke="url(#y)"/><path d="m9.62214 191.414c4.09396 10.699.35343 23.476-7.63322 38.588-7.98545 15.116-19.47902 32.164-29.83972 50.497-12.8312 22.697-24.3594 45.986-37.6494 65.198-11.408 16.492-20.4307 32.198-23.8057 44.422-3.6807 13.331-14.3261 14.463-30.6661 6.52-16.34-7.942-38.08-24.868-56.349-44.212-18.937-20.057-33.545-40.57-34.537-63.29-.853-19.448 4.916-41.503 15.786-63.345 10.869-21.843 27.411-43.365 46.126-62.132 22.371-22.427 45.36-37.696 67.6556-47.086 22.2953-9.39 40.7641-12.898 51.3866-11.697 14.9117 1.686 21.33168 10.243 24.69545 25.422 3.6199 16.329 6.3258 38.907 14.83049 61.115z" stroke="url(#z)"/><path d="m7.31783 195.433c4.33557 10.949 1.09932 23.936-6.21568 39.299s-17.67775 32.248-27.22045 50.484c-11.8902 22.732-22.7462 45.955-35.7798 65.06-11.1466 16.324-20.1582 31.826-23.6897 43.969-3.865 13.292-14.5862 14.605-30.9522 6.923-16.36-7.68-38.118-24.255-56.712-43.302-19.471-19.944-35.265-40.376-37.384-63.192-1.814-19.522 3.027-41.72 13.081-63.759 10.051-22.036 25.923-43.788 44.338-62.764 21.873-22.538 44.776-37.995 67.002-47.608 22.2256-9.613 41.3555-13.377 52.2029-12.392 15.3681 1.397 21.9475 9.832 25.49298 25.102 3.7962 16.402 6.76377 39.27 15.83636 62.178z" stroke="url(#A)"/><path d="m5.11074 199.502c4.5959 11.204 1.72478 24.591-4.701184 40.009-6.424176 15.425-15.871956 32.286-24.621756 50.43-10.9768 22.764-21.1911 45.924-33.9975 64.912-10.909 16.166-19.9236 31.461-23.6267 43.531-4.0662 13.256-14.8572 14.756-31.2286 7.343-16.37-7.411-38.113-23.631-56.994-42.371-19.963-19.808-36.829-40.162-40.093-63.09-2.788-19.596 1.113-41.948 10.321-64.181 9.209-22.235 24.374-44.223 42.435-63.411 21.324-22.657 44.097-38.317 66.2216-48.162 22.1233-9.843 41.8745-13.861 52.952-13.09 15.8468 1.11 22.6037 9.424 26.3525 24.799 4.01342 16.478 7.27951 39.639 16.98209 63.279z" stroke="url(#B)"/><path d="m3.00717 203.618c4.88489 11.464 2.49675 25.216-3.0576998 40.69-5.5538602 15.476-14.1124702 32.317-22.0979702 50.361-10.0855 22.797-19.6955 45.887-32.3003 64.76-10.6897 16.007-19.7323 31.099-23.61 43.104-4.275 13.224-15.1344 14.914-31.5002 7.779-16.362-7.128-38.062-22.986-57.193-41.414-10.21-9.836-19.42-19.832-26.884-30.262-7.46-10.433-13.567-21.199-15.779-32.72-3.777-19.675-.821-42.183 7.523-64.615 8.343-22.437 22.758-44.67 40.421-64.085 20.731-22.789 43.315-38.658 65.3131-48.732 21.998-10.074 42.314-14.344 53.6375-13.777 16.347.819 23.292 9.019 27.2716 24.501 4.2628 16.558 7.86136 40.024 18.25597 64.41z" stroke="url(#C)"/><path d="m1.01066 207.785c5.20313 11.735 3.39529 25.805-1.301089 41.334-4.701651 15.526-12.394471 32.342-19.646671 50.288-9.2212 22.828-18.2595 45.842-30.6792 64.606-10.4926 15.848-19.5748 30.743-23.6433 42.686-4.5007 13.194-15.4174 15.083-31.7544 8.241-16.343-6.845-37.973-22.33-57.314-40.446-10.418-9.758-19.888-19.7-27.69-30.122s-14.598-21.178-17.396-32.749c-4.779-19.755-2.773-42.417 4.687-65.057 7.454-22.64 21.092-45.124 38.304-64.775 20.092-22.931 42.445-39.016 64.293-49.33 21.8445-10.311 42.668-14.83 54.245-14.473 16.8683.526 24.0166 8.617 28.2557 24.214 4.528 16.647 8.4895 40.43 19.63996 65.583z" stroke="url(#D)"/><path d="m-.865952 212.002c5.545382 12.012 4.414292 26.358.551985 41.936-3.867583 15.576-10.716833 32.367-17.263733 50.209-8.3849 22.854-16.8849 45.8-29.1481 64.446-10.317 15.691-19.4513 30.393-23.7194 42.274-4.7339 13.17-15.7014 15.264-32.0028 8.71-16.301-6.549-37.841-21.65-57.349-39.442-10.611-9.676-20.319-19.554-28.445-29.962-8.126-10.407-14.702-21.351-18.825-32.816-7.038-19.553-4.83-42.633 1.721-65.483 6.552-22.851 19.369-45.595 36.096-65.483 19.405-23.081 41.486-39.398 63.153-49.954 21.6662-10.557 42.9393-15.328 54.7734-15.168 17.4083.235 24.7745 8.223 29.3012 23.94 4.823 16.747 9.1802 40.853 21.158488 66.793z" stroke="url(#E)"/><path d="m-2.60875 216.27c5.92098 12.296 5.5324 26.871 2.48197 42.498-3.04873 15.617-9.08596 32.382-14.95052 50.118-7.5695 22.884-15.5693 45.752-27.6958 64.29-10.159 15.534-19.3597 30.054-23.8402 41.875-4.9783 13.152-15.9885 15.45-32.2365 9.202-16.2482-6.25-37.6692-20.956-57.3112-38.419-10.788-9.586-20.715-19.406-29.149-29.794-8.431-10.389-15.398-21.365-20.033-32.916-7.9-19.681-7.014-42.828-1.385-65.892s17.599-46.072 33.791-66.21c18.681-23.241 40.438-39.79 61.894-50.596 21.4601-10.808 43.1168-15.828 55.2157-15.869 17.9657-.056 25.5686 7.832 30.4069 23.675 5.1374 16.852 9.9318 41.286 22.81165 68.038z" stroke="url(#F)"/><path d="m-4.22137 220.599c6.32115 12.59 6.7347 27.347 4.479717 43.012-2.256767 15.659-7.496617 32.392-12.710847 50.018-6.7759 22.916-14.311 45.706-26.3271 64.137-10.0244 15.372-19.3039 29.713-23.9992 41.482-5.236 13.135-16.2818 15.644-32.4608 9.708-16.1804-5.94-37.4614-20.245-57.2044-37.369-10.942-9.49-21.073-19.238-29.795-29.609s-16.061-21.376-21.192-33.014c-8.732-19.815-9.165-43.046-4.467-66.328 4.692-23.283 15.786-46.558 31.399-66.952 17.919-23.405 39.301-40.203 60.528-51.266 21.2254-11.065 43.1939-16.338 55.5645-16.571 18.5413-.346 26.3949 7.445 31.5705 23.426 5.4945 16.967 10.7606 41.743 24.61463 69.326z" stroke="url(#G)"/><path d="m-5.68551 224.979c6.75469 12.891 8.00276 27.774 6.526305 43.48s-5.948775 32.397-10.541325 49.921c-6.01097 22.941-13.11987 45.658-25.04377 63.979-9.9042 15.222-19.28 29.386-24.1935 41.105-5.4991 13.114-16.5728 15.846-32.6782 10.224-16.1-5.62-37.216-19.511-57.027-36.291-11.08-9.385-21.397-19.058-30.392-29.408-8.995-10.347-16.691-21.378-22.29-33.104-9.528-19.946-11.256-43.288-7.509-66.789 3.747-23.499 13.932-47.047 28.927-67.706 17.117-23.576 38.085-40.636 59.05-51.959 20.9637-11.324 43.1714-16.855 55.8191-17.277 19.1321-.645 27.2492 7.061 32.7932 23.181 5.8773 17.08 11.6491 42.206 26.55919 70.644z" stroke="url(#H)"/><path d="m-6.99803 229.422c7.225068 13.196 9.32024 28.158 8.6024 43.897-.717243 15.741-4.44533 32.401-8.44138 49.813-5.27159 22.969-11.98319 45.605-23.84039 63.821-9.8082 15.065-19.2819 29.06-24.4259 40.734-5.7744 13.097-16.8707 16.055-32.8754 10.762-16.0043-5.293-36.9363-18.764-56.7793-35.187-11.202-9.272-21.692-18.867-30.946-29.191-9.249-10.323-17.284-21.377-23.338-33.187-10.297-20.077-13.295-43.564-10.507-67.284 2.788-23.719 12.046-47.546 26.386-68.474 16.283-23.76 36.785-41.082 57.463-52.671 20.674-11.589 43.0463-17.376 55.9745-17.991 19.7381-.938 28.1311 6.682 34.0733 22.952 3.1406 8.601 5.9347 19.233 10.2943 31.403 4.3613 12.176 10.3346 25.941 18.35987 40.603z" stroke="url(#I)"/><path d="m-8.14327 233.922c7.721822 13.516 10.6742 28.485 10.69456 44.263.02036 15.779-2.98811 32.399-6.41393 49.7-4.55454 22.997-10.90836 45.553-22.71716 63.661-9.7237 14.915-19.3152 28.749-24.6903 40.375-6.052 13.087-17.161 16.275-33.0598 11.314-15.8991-4.961-36.6201-18.001-56.4691-34.063-11.304-9.151-21.951-18.663-31.444-28.955-9.488-10.293-17.85-21.372-24.343-33.262-11.032-20.207-15.267-43.865-13.443-67.806 1.823-23.945 10.126-48.052 23.774-69.254 14.118-21.952 33.23-40.251 55.775-53.401 20.361-11.856 42.8178-17.914 56.0248-18.713 20.3563-1.233 29.0398 6.304 35.4123 22.727 3.3642 8.669 6.4168 19.428 11.1306 31.824 4.7103 12.4 11.13 26.48 19.76903 41.59z" stroke="url(#J)"/><path d="m-9.12048 238.483c8.281839 13.765 12.04362 28.759 12.78057 44.579.73924 15.812-1.56712 32.394-4.453685 49.583-3.867815 23.027-9.895505 45.501-21.676205 63.508-9.6597 14.77-19.3784 28.442-24.988 40.023-6.3343 13.076-17.4542 16.5-33.2313 11.881-15.7706-4.613-36.2649-17.21-56.0919-32.906-11.39-9.02-22.18-18.446-31.892-28.7-9.717-10.258-18.382-21.36-25.294-33.33-11.736-20.33-17.164-44.203-16.313-68.367.846-24.162 8.177-48.561 21.099-70.05 13.338-22.162 31.866-40.748 53.986-54.155 20.014-12.136 42.4781-18.458 55.968-19.441 20.9874-1.53 29.972 5.931 36.8006 22.519 3.5972 8.739 6.9274 19.629 12.0229 32.255 5.9598 14.74 13.0764 28.984 21.28302 42.601z" stroke="url(#K)"/><path d="m-9.8892 243.059c8.905653 13.929 13.39085 29.033 14.83145 44.879 1.43941 15.843-.19641 32.384-2.56772 49.457-3.202694 23.058-8.94334 45.452-20.71353 63.359-9.6075 14.615-19.4637 28.134-25.3178 39.683-6.6294 13.067-17.745 16.733-33.3892 12.463-15.6376-4.264-35.882-16.4-55.656-31.719-11.461-8.884-22.373-18.21-32.296-28.43-9.922-10.215-18.885-21.335-26.198-33.389-12.41-20.454-18.983-44.575-19.115-68.962s6.211-49.073 18.371-70.852c13.591-24.341 32.459-42.512 52.101-54.931 19.644-12.418 42.0299-19.007 55.8027-20.175 21.6214-1.832 30.931 5.557 38.2479 22.316 3.8442 8.81 7.4767 19.841 12.9767 32.699 5.5 12.857 12.8423 27.836 22.9225 43.602z" stroke="url(#L)"/><path d="m-10.4578 247.652c9.51419 14.086 14.71344 29.298 16.83082 45.171 2.11856 15.877 1.13048 32.375-.75066 49.336-2.56098 23.086-8.04965 45.402-19.83566 63.21-9.5778 14.472-19.5705 27.843-25.6732 39.345-6.9221 13.066-18.0334 16.975-33.527 13.068-15.4955-3.913-35.4715-15.582-55.1685-30.516-11.513-8.732-22.533-17.957-32.651-28.129-10.117-10.171-19.35-21.306-27.054-33.44-13.057-20.574-20.72-44.982-21.827-69.598-1.111-24.615 4.229-49.595 15.592-71.66 12.64-24.548 30.879-43.021 50.124-55.725 19.244-12.707 41.466-19.57 55.5188-20.916 22.2734-2.134 31.914 5.19 39.7491 22.13 4.111 8.889 8.0581 20.056 13.989 33.16 5.9285 13.097 13.8489 28.523 24.6833 44.564z" stroke="url(#M)"/><path d="m-10.8294 252.249c10.113175 14.248 16.00801 29.558 18.77969 45.464 2.77781 15.904 2.41581 32.361.99212 49.203-1.94785 23.122-7.22258 45.352-19.03781 63.059-9.5588 14.326-19.7036 27.555-26.0507 39.024-7.2226 13.054-18.3178 17.215-33.6551 13.677-15.3331-3.54-35.0238-14.734-54.6208-29.279-11.55-8.569-22.669-17.691-32.962-27.813-10.294-10.125-19.796-21.269-27.868-33.48-13.678-20.682-22.37-45.43-24.456-70.27-2.089-24.837 2.236-50.108 12.779-72.476 11.666-24.76 29.233-43.543 48.051-56.541 18.818-12.997 40.788-20.147 55.1224-21.669 22.9256-2.435 32.9158 4.827 41.3011 21.952 4.3908 8.968 8.6788 20.285 15.0669 33.635 6.3951 13.359 14.9741 29.204 26.5561 45.515z" stroke="url(#N)"/><path d="m-11.0106 256.862c10.697779 14.398 17.2678 29.813 20.68325 45.746 3.41485 15.93 3.65215 32.345 2.66885 49.072-1.3627 23.153-6.4527 45.302-18.32101 62.919-9.55439 14.189-19.85949 27.279-26.45569 38.714-7.5259 13.047-18.5945 17.467-33.7607 14.302-15.1616-3.164-34.5471-13.874-54.0151-28.011-11.574-8.404-22.769-17.412-33.228-27.477-10.46-10.071-20.207-21.22-28.636-33.501-14.273-20.792-23.927-45.92-26.992-70.986-3.067-25.061.236-50.628 9.928-73.301 10.674-24.971 27.532-44.073 45.896-57.367s39.995-20.737 54.6066-22.433c23.5852-2.74 33.9356 4.465 42.9047 21.783 4.6863 9.054 9.3287 20.523 16.2044 34.131 6.8815 13.598 16.1919 29.823 28.5147 46.41z" stroke="url(#O)"/><path d="m-11.0136 261.476c11.272765 14.554 18.50477 30.065 22.5391 46.023 4.0344 15.958 4.847 32.325 4.2732 48.937-.804 23.184-5.7483 45.256-17.68317 62.781-9.56453 14.048-20.03693 27.005-26.87413 38.404-7.8273 13.047-18.8693 17.724-33.8528 14.942-14.9794-2.783-34.0456-12.991-53.3626-26.716-11.575-8.226-22.841-17.112-33.448-27.123s-20.589-21.163-29.362-33.511c-9.888-13.925-17.959-30.309-23.362-46.764-5.399-16.459-8.123-33.469-8.027-50.334.098-16.861 3.138-33.448 9.017-48.769 9.659-25.196 25.778-44.616 43.659-58.212 17.885-13.597 39.091-21.33 53.974-23.203 24.2481-3.052 34.9733 4.102 44.5564 21.626 5.0006 9.144 10.0202 20.766 17.4116 34.638 7.3926 13.861 17.4949 30.431 30.5414 47.281z" stroke="url(#P)"/><path d="m-10.832 266.102c11.831014 14.705 19.70688 30.313 24.3386 46.298 4.631 15.983 5.9972 32.303 5.8073 48.803-.2697 23.224-5.1111 45.207-17.12885 62.646-9.58288 13.909-20.23015 26.738-27.31575 38.106-8.1354 13.039-19.1349 17.983-33.9216 15.587-14.7855-2.392-33.5128-12.093-52.6637-25.401-11.564-8.036-22.881-16.792-33.623-26.735-10.746-9.943-20.948-21.101-30.043-33.507-10.248-13.989-18.789-30.585-24.76-47.3-5.971-16.718-9.374-33.808-9.93-50.846-.558-17.041 1.816-33.833 7.093-49.361 8.637-25.419 23.971-45.175 41.346-59.077 17.375-13.903 38.067-21.94 53.218-23.986 24.9094-3.367 36.0253 3.744 46.2553 21.48 5.3296 9.238 10.7503 21.02 18.6855 35.161 7.9346 14.139 18.8766 31.021 32.6422 48.132z" stroke="url(#Q)"/><path d="m-10.4868 270.73c12.3706 14.853 20.8728 30.557 26.0813 46.56 5.2091 16.005 7.0998 32.285 7.2697 48.667.2376 23.261-4.5324 45.171-16.65171 62.519-9.62163 13.777-20.43849 26.48-27.77329 37.814-8.438 13.035-19.3939 18.25-33.9743 16.256-14.5852-1.994-32.9571-11.176-51.9169-24.054-11.537-7.841-22.889-16.46-33.757-26.33-10.868-9.875-21.279-21.022-30.681-33.494-10.594-14.05-19.58-30.85-26.097-47.827-6.511-16.974-10.571-34.188-11.783-51.406-1.21-17.215.492-34.211 5.155-49.946 7.597-25.642 22.119-45.737 38.958-59.957 16.84-14.216 36.928-22.562 52.343-24.783 25.5701-3.675 37.0927 3.395 48.0046 21.342 5.6766 9.334 11.5144 21.285 20.0279 35.707 8.5129 14.419 20.3235 31.559 34.7947 48.932z" stroke="url(#R)"/><path d="m-9.97495 275.366c12.90263 15.006 22.01245 30.803 27.77265 46.829 5.7649 16.026 8.1595 32.257 8.6595 48.524.7182 23.299-4.0154 45.135-16.2574 62.398-9.667411 13.635-20.666 26.232-28.2458 37.531-8.7401 13.032-19.643 18.519-34.0091 16.927-14.3701-1.592-32.3732-10.239-51.1199-22.677-11.497-7.628-22.87-16.104-33.849-25.902-10.979-9.8-21.583-20.938-31.278-33.459-10.919-14.101-20.336-31.115-27.372-48.353-7.031-17.238-11.709-34.626-13.569-52.016-1.86-17.388-.833-34.589 3.2-50.536 6.547-25.874 20.219-46.31 36.501-60.848 16.281-14.538 35.677-23.201 51.346-25.587 26.2362-3.995 38.1667 3.037 49.7987 21.219 6.0377 9.433 12.3205 21.557 21.4386 36.259 9.114 14.703 21.8229 32.066 36.98315 49.689z" stroke="url(#S)"/><path d="m-9.31175 280.007c13.41414 15.149 23.11345 31.037 29.40845 47.089 6.2991 16.05 9.1726 32.236 9.9827 48.382 1.1701 23.343-3.5645 45.101-15.9408 62.283-9.72717 13.506-20.90702 25.983-28.7318 37.247-9.0416 13.032-19.8828 18.791-34.025 17.616-14.1433-1.179-31.7676-9.288-50.282-21.279-11.4388-7.411-22.8238-15.734-33.8978-25.447-11.591-10.161-22.247-21.342-31.84-33.408-11.229-14.146-21.055-31.364-28.586-48.871-7.53-17.503-12.786-35.112-15.292-52.681-2.505-17.565-2.154-34.968 1.245-51.133 5.487-26.102 18.281-46.89 33.976-61.753 15.695-14.858 34.31-23.847 50.23-26.404 26.8878-4.314 39.2516 2.685 51.6347 21.102 6.4151 9.542 13.1646 21.838 22.9202 36.841 9.755 15.001 23.3588 32.53 39.19835 50.416z" stroke="url(#T)"/><path d="m-8.49711 284.648c13.9122 15.292 24.17881 31.271 30.98871 47.34 6.8057 16.071 10.1394 32.209 11.2317 48.244 1.5951 23.388-3.1756 45.067-15.7071 62.173-9.79924 13.381-21.16036 25.737-29.2231 36.976-9.3409 13.024-20.1091 19.063-34.0181 18.308-13.9083-.754-31.1374-8.313-49.4078-19.849-11.3672-7.181-22.7502-15.345-33.9092-24.971-11.749-10.139-22.578-21.297-32.361-33.343-11.521-14.188-21.738-31.607-29.74-49.376-8.002-17.768-13.795-35.654-16.937-53.397-3.141-17.739-3.469-35.346-.718-51.725 4.426-26.334 16.31-47.48 31.395-62.67s32.836-24.511 48.99-27.234c27.538-4.637 40.3422 2.335 53.5195 20.999 6.8131 9.645 14.0493 22.136 24.4756 37.433 10.4275 15.301 24.9242 32.959 41.42079 51.092z" stroke="url(#U)"/><path d="m-7.54005 289.292c14.39333 15.437 25.21205 31.501 32.50695 47.593 7.2991 16.09 11.059 32.186 12.4095 48.103 1.9945 23.435-2.8515 45.039-15.5494 62.076-9.8793 13.258-21.428642 25.501-29.72706 36.707-9.63184 13.013-20.32834 19.344-33.98944 19.012-13.6652-.33-30.4913-7.329-48.4926-18.398-11.2789-6.939-22.6449-14.938-33.8779-24.469-11.892-10.112-22.88-21.242-32.839-33.263-11.801-14.222-22.392-31.846-30.843-49.878-8.452-18.035-14.733-36.253-18.504-54.163-3.771-17.909-4.771-35.723-2.671-52.315 3.361-26.568 14.305-48.078 28.756-63.601 14.452-15.524 31.252-25.188 47.633-28.074 28.174-4.965 41.4824 2.051 55.4374 20.904 7.1985 9.721 14.9921 22.405 26.1185 38.021 11.1357 15.617 26.496 33.364 43.63205 51.745z" stroke="url(#V)"/><path d="m-6.44434 293.94c14.85635 15.581 26.20434 31.728 33.96974 47.837 7.2942 15.069 11.8716 31.307 13.5217 47.967 2.36 23.488-2.5921 45.016-15.4692 61.986-9.9689 13.133-21.70462 25.27-30.23054 36.44-9.92296 13.002-20.53066 19.622-33.94036 19.727-13.4114.098-29.8171-6.326-47.5387-16.923-11.183-6.687-22.5213-14.513-33.8093-23.944-11.288-9.43-22.547-20.478-33.288-33.162-12.061-14.248-23.007-32.07-31.881-50.368s-15.602-36.909-19.986-54.989c-4.387-18.079-6.057-36.092-4.621-52.905 2.297-26.8 12.282-48.681 26.073-64.539 13.795-15.859 31.357-25.706 46.238-28.921 25.824-5.577 42.5018 1.689 57.319 20.809 7.63 9.847 15.9569 22.72 27.8237 38.655 11.8586 15.938 28.0527 33.703 45.81896 52.33z" stroke="url(#W)"/><path d="m-5.22519 298.587c15.30469 15.72 27.16149 31.955 35.37579 48.084 8.2102 16.13 12.7543 32.134 14.5575 47.827 2.6997 23.543-2.4018 45-15.4768 61.899-10.0666 13.011-21.98754 25.044-30.73567 36.182-10.20873 12.995-20.72363 19.903-33.87253 20.445-13.1488.542-29.1287-5.303-46.5548-15.419-11.8499-6.869-23.1203-14.692-33.7003-23.391-11.336-9.32-22.727-20.333-33.693-33.045-12.31-14.268-23.591-32.28-32.867-50.846-8.926-17.885-16.085-36.597-21.378-55.872-4.99-18.245-7.321-36.459-6.545-53.485 1.232-27.031 10.23-49.289 23.339-65.493 13.111-16.2 30.289-26.36 44.87-29.767 25.525-5.963 43.3741 1.322 59.0921 20.719 8.0776 9.97 16.6943 23.242 29.6298 39.287 12.9314 16.046 29.5907 34.007 47.95891 52.875z" stroke="url(#X)"/><path d="m-3.88211 303.233c15.73031 15.857 28.08071 32.175 36.71231 48.321 8.6362 16.148 13.5366 32.112 15.5243 47.693 3.0127 23.599-2.2762 44.991-15.5566 61.823-10.1748 12.899-22.2787 24.821-31.24904 35.926-10.48399 12.978-20.89496 20.181-33.77656 21.168-12.8805.991-28.4181-4.265-45.5329-13.892-11.8077-6.647-23.0324-14.28-33.5554-22.817-11.371-9.198-22.885-20.176-34.064-32.905-12.545-14.282-24.141-32.479-33.799-51.306s-17.389-38.281-22.706-56.809c-5.315-18.522-8.537-36.828-8.427-54.072.178-27.271 8.162-49.906 20.568-66.454s29.18-27.018 43.452-30.618c25.207-6.354 44.183.952 60.8342 20.631 8.5447 10.097 17.8634 23.71 31.5498 39.883 13.6918 16.176 31.0702 34.324 50.02589 53.428z" stroke="url(#Y)"/><path d="m-2.42441 307.877c16.14301 15.996 28.96081 32.396 37.99271 48.563 9.032 16.167 14.2639 32.084 16.4187 47.553 3.2906 23.656-2.2167 44.983-15.7171 61.76-10.2876 12.785-22.575 24.595-31.75358 35.67-10.75053 12.961-21.05692 20.461-33.65552 21.902-12.6003 1.434-27.6922-3.222-44.4839-12.348-10.8025-5.871-21.9788-13.128-33.3709-22.216-11.39-9.082-23.012-20.004-34.398-32.747-12.77-14.292-24.662-32.668-34.677-51.761-10.012-19.085-18.167-38.878-24-57.736-5.835-18.86-9.662-37.251-10.214-54.714-.867-27.495 6.081-50.519 17.766-67.415 11.679-16.899 28.022-27.688 41.985-31.482 24.877-6.755 44.923.573 62.5558 20.548 9.0321 10.233 19.1058 24.155 33.5327 40.451 14.417 16.308 32.5029 34.633 52.01909 53.972z" stroke="url(#Z)"/><path d="m-.860326 312.52c16.537026 16.132 29.799326 32.613 39.208826 48.798 9.4101 16.187 14.9492 32.063 17.2394 47.42 3.5469 23.729-2.2201 44.985-15.9593 61.704-10.408 12.676-22.8766 24.382-32.25812 35.414-11.00831 12.943-21.19848 20.75-33.51508 22.64-12.3155 1.895-26.947-2.156-43.405-10.777-10.6472-5.581-21.7505-12.633-33.1524-21.59-11.406-8.953-23.128-19.824-34.7-32.564-12.977-14.289-25.153-32.846-35.504-52.196-10.349-19.345-18.895-39.476-25.222-58.673-6.323-19.198-10.726-37.725-11.942-55.396-1.905-27.729 3.996-51.138 14.933-68.392 10.933-17.255 26.827-28.367 40.473-32.352 24.52-7.159 45.593.195 64.2403 20.475 9.5325 10.368 20.4135 24.567 35.5692 40.991 15.1639 16.422 33.9367 34.93 53.994174 54.498z" stroke="url(#aa)"/><path d="m.805177 317.161c16.908823 16.267 30.598223 32.829 40.358323 49.032 9.7649 16.204 15.5807 32.04 17.9942 47.288 3.7658 23.796-2.2897 44.991-16.2733 61.66-10.5437 12.562-23.1853 24.16-32.7558 35.152-11.25322 12.924-21.3207 21.03-33.3437 23.38-12.0218 2.353-26.1893-1.079-42.2979-9.187-10.4824-5.275-21.4939-12.119-32.8995-20.935-11.4055-8.816-23.2125-19.629-34.9675-32.375-13.169-14.279-25.615-33.003-36.275-52.606-10.382-19.128-19.198-39.066-26.362-59.617-6.787-19.541-11.739-38.249-13.607-56.137-2.926-27.958 1.909-51.757 12.076-69.371 10.168-17.614 25.59-29.052 38.914-33.23 24.152-7.568 46.201-.182 65.9047 20.407 10.0557 10.507 21.7748 24.95 37.6446 41.498 15.8647 16.561 35.3152 35.249 55.889877 55.041z" stroke="url(#ab)"/><path d="m2.56263 321.801c17.25787 16.4 31.35027 33.037 41.44417 49.26s16.1683 32.019 18.6747 47.16c3.9556 23.869-2.4287 45-16.6726 61.629-10.6757 12.458-23.4868 23.946-33.2463 34.898-11.49056 12.9-21.42541 21.309-33.1483 24.124-11.7218 2.82-25.4147.012-41.1674-7.575-10.307-4.963-21.2179-11.584-32.6098-20.262-11.3911-8.674-23.2811-19.423-35.2011-32.156-13.354-14.261-26.044-33.151-36.998-53.004-10.955-19.854-20.204-40.666-27.424-60.552-7.221-19.893-12.684-38.831-15.203-56.928-3.925-28.181-.176-52.375 9.207-70.354 9.384-17.975 24.315-29.745 37.307-34.117 23.76-7.987 46.734-.572 67.5382 20.34 10.5987 10.651 23.1774 25.307 39.752 41.977 16.573 16.679 36.6806 35.54 57.74743 55.56z" stroke="url(#ac)"/><path d="m4.4121 326.433c17.5894 16.533 32.0596 33.251 42.4598 49.491 10.4002 16.239 16.7035 32 19.2905 47.038 4.1143 23.942-2.6354 45.02-17.1455 61.602-10.8159 12.357-23.7942 23.728-33.721 34.639-11.71571 12.872-21.51383 21.582-32.9302 24.871-11.4163 3.289-24.627 1.115-40.0092-5.946-10.12-4.641-20.9156-11.034-32.2903-19.562-11.3692-8.525-23.3232-19.202-35.4012-31.917-13.52-14.238-26.445-33.281-37.67-53.379-11.226-20.098-20.791-41.247-28.41-61.485-7.623-20.236-13.555-39.46-16.721-57.772-4.907-28.403-2.255-52.996 6.326-71.338 8.581-18.343 22.999-30.445 35.656-35.009 23.343-8.411 47.209-.964 69.1481 20.284 11.1565 10.801 24.6119 25.622 41.8692 42.414 17.2584 16.796 38.0104 35.83 59.5488 56.069z" stroke="url(#ad)"/><path d="m6.3356 331.064c17.9021 16.664 32.7263 33.456 43.4083 49.719 10.6807 16.26 17.19 31.983 19.8267 46.917 4.2451 24.026-2.907 45.047-17.6983 61.591-10.9643 12.259-24.1005 23.515-34.1877 34.376-11.92445 12.841-21.5753 21.858-32.6804 25.621-11.1063 3.759-23.8295 2.222-38.8323-4.298-9.9211-4.309-20.5903-10.466-31.9326-18.838-11.3369-8.369-23.3473-18.969-35.5693-31.659-13.678-14.199-26.821-33.398-38.294-53.738s-21.322-41.823-29.318-62.411c-7.996-20.587-14.355-40.151-18.149-58.672-5.867-28.623-4.319-53.616 3.441-72.326s21.644-31.152 33.961-35.91c11.454-4.42 26.225-4.492 37.747-1.045 11.526 3.447 21.423 10.482 32.9851 21.275 11.737 10.953 26.0662 25.912 44.0007 42.824 17.9345 16.911 39.3121 36.114 61.2912 56.572z" stroke="url(#ae)"/><path d="m8.31446 335.689c18.19204 16.792 33.34974 33.663 44.28954 49.945 10.9397 16.281 17.6281 31.965 20.2969 46.797 4.3356 24.108-3.2474 45.08-18.3269 61.593-11.1116 12.164-24.3986 23.298-34.6327 34.111-12.12164 12.803-21.61526 22.131-32.401 26.366-10.7845 4.239-23.019 3.344-37.6318-2.63-9.7117-3.971-20.2558-9.913-31.5522-18.127-11.2969-8.216-23.3733-18.722-35.6923-31.35-13.84-14.181-27.189-33.552-38.89-54.127-11.702-20.575-21.806-42.373-30.141-63.302-8.335-20.928-15.064-40.878-19.475-59.6-6.797-28.835-6.363-54.229.557-73.312 6.925-19.082 20.249-31.864 32.216-36.818 11.226-4.64 26.033-4.813 37.916-1.361 11.878 3.454 22.208 10.576 34.374 21.541 12.3348 11.117 27.5316 26.165 46.1207 43.193 18.5961 17.037 40.5776 36.412 62.97276 57.081z" stroke="url(#af)"/><path d="m10.3813 340.306c18.4604 16.921 33.9276 33.866 45.0982 50.164 11.1707 16.299 18.0178 31.949 20.6983 46.685 4.3981 24.2-3.6549 45.125-19.0368 61.605-11.2663 12.075-24.6943 23.074-35.0637 33.834-12.30124 12.765-21.635953 22.394-32.0993 27.111-10.4592 4.715-22.1974 4.473-36.4161-.956-9.4907-3.623-19.889-9.308-31.1312-17.352-11.2416-8.042-23.3517-18.467-35.8007-31.053-13.972-14.133-27.508-33.629-39.418-54.431-11.909-20.802-22.247-42.931-30.901-64.209-8.656-21.283-15.703-41.687-20.715-60.612-7.695-29.043-8.38-54.839-2.31-74.299 6.071-19.456 18.82-32.586 30.439-37.728 10.987-4.866 25.79-5.148 38.025-1.686 12.234 3.458 23.009 10.675 35.808 21.821 12.9535 11.28 28.9972 26.374 48.2291 43.525 19.2377 17.156 41.8127 36.696 64.5942 57.581z" stroke="url(#ag)"/><path d="m12.5033 344.92c18.706 17.049 34.4571 34.071 45.8329 50.389 11.3765 16.32 18.3602 31.938 21.0255 46.576 4.4296 24.293-4.1286 45.173-19.8225 61.631-11.4264 11.981-24.9872 22.844-35.4785 33.551-12.461 12.718-21.635 22.655-31.76366 27.85-10.13154 5.201-21.36934 5.61-35.17704.739-9.2631-3.269-19.5003-8.69-30.6778-16.558s-23.307-18.192-35.8762-30.737c-14.091-14.067-27.799-33.684-39.893-54.706-12.094-21.023-22.646-43.475-31.585-65.109-8.94-21.634-16.367-42.486-21.858-61.674-8.404-29.345-10.36-55.455-5.151-75.286 5.208-19.831 17.362-33.314 28.623-38.654 10.735-5.088 25.484-5.477 38.08-2.011 12.596 3.469 23.828 10.763 37.279 22.11 9.0707 7.633 19.5633 16.995 31.4495 27.381 13.1918 11.514 26.4035 23.005 39.6351 34.473 14.4174 12.515 29.9299 25.972 45.3577 40.035z" stroke="url(#ah)"/><path d="m14.6753 349.519c18.93 17.179 34.9362 34.27 46.5003 50.611 11.5606 16.344 18.6499 31.928 21.2878 46.472 4.4231 24.393-4.6786 45.232-20.6847 61.668-11.5846 11.895-25.2708 22.617-35.8681 33.265-12.6091 12.665-21.60552 22.907-31.40302 28.584-9.79508 5.685-20.53418 6.755-33.92958 2.446-9.0238-2.904-19.0947-8.06-30.1976-15.748-11.101-7.682-23.2445-17.902-35.9234-30.397-14.203-13.995-28.068-33.725-40.33-54.96s-22.993-44.01-32.198-65.993c-9.203-21.987-16.972-43.224-22.927-62.754-9.08-29.764-12.271-56.1-7.936-76.312 4.335-20.213 15.868-34.043 26.77-39.579 10.474-5.318 25.122-5.826 38.086-2.341 12.964 3.482 24.664 10.878 38.791 22.414 9.5061 7.744 20.5484 17.092 32.8539 27.533 12.3095 10.44 26.0534 22.089 40.8406 34.702 14.7925 12.615 30.622438 26.188 46.2678 40.389z" stroke="url(#ai)"/><path d="m16.8896 354.115c19.1271 17.307 35.3721 34.473 47.0935 50.836 11.7174 16.365 18.8871 31.921 21.4719 46.375 4.3857 24.492-5.276 45.295-21.6258 61.723-11.7462 11.826-25.5484 22.379-36.2344 32.966-25.47067 25.226-37.7285 40.962-63.6748 33.475-8.778-2.533-18.6674-7.416-29.682-14.908-11.0135-7.488-23.1569-17.602-35.938-30.038-14.306-13.921-28.314-33.746-40.725-55.188-12.41-21.438-23.302-44.525-32.734-66.856-9.431-22.33-17.514-43.959-23.907-63.837-9.706-30.195-14.114-56.78-10.663-77.381 3.448-20.593 14.345-34.782 24.879-40.516 10.205-5.554 24.705-6.174 38.037-2.675 13.331 3.495 25.519 10.999 40.34 22.726 11.5056 9.093 22.9143 18.307 34.224 27.643 12.7247 10.496 26.8717 22.22 42.0153 34.93 15.1459 12.703 31.27911 26.389 47.1233 40.725z" stroke="url(#aj)"/><path d="m20.1931 359.145c19.3375 17.437 35.7951 34.678 47.6353 51.068 11.839 16.387 19.0354 31.914 21.5092 46.276 4.2432 24.595-6.1328 45.35-22.9005 61.742-11.976 11.724-25.9823 22.032-36.811 32.495-25.84499 24.96-37.00714 42.127-62.0602 35.849-8.5063-2.134-18.194-6.706-29.101-13.966s-23.0214-17.214-35.8993-29.555c-14.3836-13.81-28.5286-33.693-41.0986-55.33-12.564-21.634-23.633-45.035-33.322-67.734-9.689-22.698-18.119-44.74-24.963-64.995-10.368-30.669-16.034-57.556-13.495-78.533 2.538-20.979 12.809-35.521 23.038-41.437 9.99-5.775 24.444-6.49 38.2-2.966 13.756 3.526 26.143 11.364 42.175 23.11 10.7512 7.864 22.5382 17.167 35.7225 27.719 13.1883 10.551 27.7886 22.356 43.3254 35.169 15.5386 12.802 31.99742 26.617 48.0452 41.088z" stroke="url(#ak)"/><path d="m22.1191 363.573c19.4756 17.56 36.1094 34.874 48.0578 51.286 11.9485 16.412 19.1822 31.915 21.5813 46.188 4.1556 24.705-6.8376 45.44-23.9091 61.84-12.1178 11.647-26.1816 21.819-37.0404 32.224-25.96062 24.868-36.09024 43.462-60.2813 38.314-8.2447-1.754-17.7369-6.05-28.5429-13.116-10.8071-7.07-22.9063-16.911-35.8633-29.189-14.4622-13.716-28.7232-33.691-41.3862-55.512-12.665-21.826-23.825-45.51-33.67-68.545-9.846-23.038-18.502-45.459-25.705-66.062-10.871-31.102-17.668-58.315-16.028-79.683 1.641-21.364 11.225-36.27 21.049-42.387 9.674-6.026 23.866-6.866 37.979-3.329 14.111 3.542 27.205 11.583 43.804 23.359 11.104 7.874 23.2704 17.201 36.8284 27.804 13.5585 10.605 28.522 22.485 44.3679 35.385 15.8453 12.897 32.56534 26.817 48.7582 41.421z" stroke="url(#al)"/><path d="m24.0697 367.984c19.5934 17.683 36.3773 35.07 48.4123 51.506s19.2832 31.912 21.5883 46.106c4.0359 24.826-7.6006 45.544-24.9847 61.95-12.2619 11.579-26.3693 21.602-37.2389 31.939-25.97853 24.716-35.14072 44.802-58.4705 40.783-7.983-1.374-17.2691-5.389-27.9593-12.256-10.6897-6.865-22.7736-16.593-35.8021-28.797-14.5348-13.63-28.9048-33.691-41.6568-55.694-12.753-22.007-23.985-45.982-33.958-69.35-9.428-22.106-18.21-44.481-26.335-67.098-11.338-31.564-19.208-59.14-18.466-80.886.737-21.742 9.609-37.01 19.028-43.328 9.346-6.269 23.235-7.249 37.708-3.698 14.474 3.556 28.281 11.779 45.419 23.579 11.4495 7.875 23.9888 17.235 37.9122 27.891 15.2722 11.678 30.3994 23.545 45.3782 35.597 16.14386 12.994 33.1 27.025 49.4233 41.757z" stroke="url(#am)"/><path d="m32.7248 563.859c-21.9777 20.783-30.54959 39.582-46.8286 42.957-16.279 3.375-40.6957-9.679-72.8716-39.488-14.6006-13.522-29.0546-33.645-41.8676-55.81-12.812-22.162-24.087-46.409-34.16-70.1-10.076-23.69-19.098-46.868-26.919-68.19-11.735-31.982-20.64-59.963-20.811-82.098-.169-22.133 7.979-37.784 16.985-44.304 9.006-6.523 22.563-7.64 37.399-4.073 14.837 3.571 29.348 11.944 47.025 23.768 11.7837 7.881 24.6867 17.273 38.9644 27.973 15.6253 11.71 31.0793 23.648 46.3571 35.808 16.4271 13.084 33.60711 27.229 50.0387 42.089 32.8631 29.719 57.2586 58.348 66.4232 83.317 9.1596 24.966 3.2981 46.326-10.4567 63.779-13.7641 17.453-34.6277 30.517-49.2779 44.372z" stroke="url(#an)"/><path d="m7.93177 364.489c24.57243 22.618 45.19383 44.74 57.85973 65.097 12.6647 20.353 17.3353 38.93 14.8909 55.282-2.3522 15.727-11.0574 29.44-22.2784 41.169-11.2222 11.724-23.261 23.171-32.9965 34.327-17.09873 19.584-25.630221 37.08-38.7604 43.089-7.2658 3.329-15.8544 3.144-26.6171-1.3-14.8538-6.132-34.1774-20.834-56.1641-42.214-15.3949-14.966-30.2679-36.433-42.9599-59.521-12.689-23.092-23.337-47.86-32.573-71.784-8.663-22.493-16.66-45.236-23.98-68.2-9.481-29.68-16.039-55.982-15.295-76.838.745-20.852 8.369-35.7 16.104-42.19 8.001-6.712 18.452-8.33 32.384-5.068 13.931 3.259 26.456 11.099 42.628 22.884 16.173 11.789 34.9178 26.922 56.7812 44.738 21.8675 17.83 46.8724 38.347 70.97657 60.529z" stroke="url(#ao)"/></g></svg>